<svg width="20" height="20" viewBox="0 0 20 20" fill="none" xmlns="http://www.w3.org/2000/svg">
<g id="Gamification/Outline/Leaderboard">
<path id="Shape" fill-rule="evenodd" clip-rule="evenodd" d="M6.66675 3.33342C6.66675 2.41294 7.41294 1.66675 8.33342 1.66675H11.6667C12.5872 1.66675 13.3334 2.41294 13.3334 3.33341V6.66675H16.6667C17.5872 6.66675 18.3334 7.41294 18.3334 8.33342V16.6667C18.3334 17.5872 17.5872 18.3334 16.6667 18.3334H3.33341C2.41294 18.3334 1.66675 17.5872 1.66675 16.6667V11.6667C1.66675 10.7463 2.41294 10.0001 3.33341 10.0001H6.66675V3.33342ZM11.6667 16.6667V3.33341L8.33342 3.33342V16.6667H11.6667ZM13.3334 8.33342V16.6667H16.6667V8.33342H13.3334ZM3.33341 11.6667H6.66675V16.6667H3.33341V11.6667Z" fill="white"/>
</g>
</svg>
