<svg width="20" height="20" viewBox="0 0 20 20" fill="none" xmlns="http://www.w3.org/2000/svg">
<path d="M10.8418 18.7501C10.3418 18.7501 9.56682 18.5084 8.82515 17.2918L7.35848 14.9168C7.21681 14.6834 6.78347 14.4584 6.5168 14.4751L3.73345 14.6168C2.06678 14.7001 1.48349 14.0084 1.27516 13.5918C1.06682 13.1751 0.883452 12.2834 1.96679 11.0168L3.61682 9.10012C3.78349 8.90012 3.87513 8.46676 3.80013 8.21676L2.95845 5.52511C2.53345 4.17511 3.00846 3.45012 3.32512 3.13345C3.64179 2.81678 4.37513 2.35844 5.72513 2.80844L8.18347 3.61677C8.40847 3.69177 8.82514 3.62511 9.0168 3.49178L11.5835 1.64177C12.7585 0.791775 13.6085 1.01677 14.0001 1.22511C14.3918 1.43344 15.0584 2.00012 15.0334 3.45012L14.9751 6.60843C14.9668 6.84177 15.1584 7.2251 15.3418 7.36677L17.4085 8.93344C18.5335 9.79177 18.5751 10.6501 18.5001 11.0918C18.4251 11.5334 18.0918 12.3334 16.7418 12.7501L14.0501 13.5918C13.8001 13.6668 13.4918 13.9918 13.4251 14.2418L12.7835 16.6918C12.3585 18.3001 11.5251 18.6584 11.0585 18.7251C11.0001 18.7418 10.9251 18.7501 10.8418 18.7501ZM6.54178 13.2251C7.25844 13.2251 8.05011 13.6584 8.41678 14.2584L9.88345 16.6334C10.3001 17.3168 10.6751 17.5251 10.8751 17.4918C11.0668 17.4668 11.3668 17.1501 11.5751 16.3834L12.2168 13.9334C12.3918 13.2668 13.0168 12.6085 13.6751 12.4085L16.3668 11.5668C16.8835 11.4084 17.2168 11.1501 17.2668 10.8834C17.3168 10.6168 17.0834 10.2668 16.6501 9.93345L14.5835 8.36678C14.0751 7.98345 13.7085 7.21677 13.7168 6.58344L13.7752 3.42509C13.7835 2.86676 13.6502 2.45011 13.4085 2.32511C13.1668 2.20011 12.7585 2.3251 12.3001 2.6501L9.73346 4.5001C9.22512 4.86677 8.38348 5.00012 7.77515 4.80012L5.3168 3.99178C4.80014 3.82511 4.38349 3.83343 4.19182 4.0251C4.00016 4.21676 3.98344 4.63343 4.14177 5.1501L4.98345 7.84178C5.19178 8.50011 5.00844 9.39179 4.55844 9.90845L2.90846 11.8251C2.38346 12.4334 2.30013 12.8585 2.39179 13.0335C2.47513 13.2085 2.87515 13.4001 3.66682 13.3584L6.45012 13.2168C6.48346 13.2251 6.51678 13.2251 6.54178 13.2251Z" fill="white"/>
<path d="M18.2583 18.9585C18.0999 18.9585 17.9416 18.9001 17.8166 18.7751L15.2916 16.2501C15.0499 16.0085 15.0499 15.6085 15.2916 15.3668C15.5333 15.1251 15.9333 15.1251 16.1749 15.3668L18.7 17.8918C18.9416 18.1335 18.9416 18.5335 18.7 18.7751C18.575 18.9001 18.4166 18.9585 18.2583 18.9585Z" fill="white"/>
</svg>
