<svg width="20" height="20" viewBox="0 0 20 20" fill="none" xmlns="http://www.w3.org/2000/svg">
<path d="M10.0083 14.1666C9.29994 14.1666 8.58327 13.9832 8.02494 13.6249L3.00827 10.3499C2.07493 9.74157 1.5166 8.71657 1.5166 7.59991C1.5166 6.48324 2.07493 5.45824 3.00827 4.84991L8.03327 1.58324C9.14994 0.85824 10.8916 0.85824 11.9999 1.59157L16.9916 4.86657C17.9166 5.47491 18.4749 6.49991 18.4749 7.60824C18.4749 8.71657 17.9166 9.74157 16.9916 10.3499L11.9999 13.6249C11.4416 13.9916 10.7249 14.1666 10.0083 14.1666ZM10.0083 2.29157C9.53327 2.29157 9.05827 2.39991 8.7166 2.63324L3.69993 5.89991C3.1166 6.28324 2.77493 6.89991 2.77493 7.59991C2.77493 8.29991 3.10827 8.91657 3.69993 9.29991L8.7166 12.5749C9.40827 13.0249 10.6249 13.0249 11.3166 12.5749L16.3083 9.29991C16.8916 8.91657 17.2249 8.29991 17.2249 7.59991C17.2249 6.89991 16.8916 6.28324 16.3083 5.89991L11.3166 2.62491C10.9666 2.40824 10.4916 2.29157 10.0083 2.29157Z" fill="white"/>
<path d="M10.0001 18.9582C9.6334 18.9582 9.2584 18.9082 8.9584 18.8082L6.30007 17.9249C5.04174 17.5082 4.05007 16.1332 4.0584 14.8082L4.06674 10.8999C4.06674 10.5582 4.35007 10.2749 4.69174 10.2749C5.0334 10.2749 5.31674 10.5582 5.31674 10.8999L5.3084 14.8082C5.3084 15.5916 5.9584 16.4916 6.70007 16.7416L9.3584 17.6249C9.69173 17.7332 10.3084 17.7332 10.6417 17.6249L13.3001 16.7416C14.0417 16.4916 14.6917 15.5916 14.6917 14.8166V10.9499C14.6917 10.6082 14.9751 10.3249 15.3167 10.3249C15.6584 10.3249 15.9417 10.6082 15.9417 10.9499V14.8166C15.9417 16.1416 14.9584 17.5082 13.7001 17.9332L11.0417 18.8166C10.7417 18.9082 10.3667 18.9582 10.0001 18.9582Z" fill="white"/>
<path d="M17.8333 13.125C17.4916 13.125 17.2083 12.8417 17.2083 12.5V7.5C17.2083 7.15833 17.4916 6.875 17.8333 6.875C18.1749 6.875 18.4583 7.15833 18.4583 7.5V12.5C18.4583 12.8417 18.1749 13.125 17.8333 13.125Z" fill="white"/>
</svg>
