<svg width="40" height="40" viewBox="0 0 40 40" fill="none" xmlns="http://www.w3.org/2000/svg">
<g clip-path="url(#clip0_2_2348)">
<path d="M23.7644 2.18143C22.0952 3.14788 20.8477 4.70966 20.2598 6.56923C19.6719 8.42879 19.7848 10.4561 20.5768 12.2648C21.4949 12.117 22.3766 11.805 23.1811 11.3436C24.8507 10.3773 26.0984 8.81567 26.6865 6.95609C27.2746 5.0965 27.1619 3.06901 26.37 1.26019C25.4515 1.40788 24.5694 1.71984 23.7644 2.18143ZM12.9276 6.79457C14.7597 6.79593 16.5272 7.47828 17.8933 8.71157C19.2594 9.94485 20.1286 11.6428 20.3351 13.4819C19.5092 13.7925 18.6353 13.9528 17.7541 13.9554C15.9222 13.9541 14.1549 13.2719 12.7888 12.0389C11.4227 10.8058 10.5535 9.10817 10.3467 7.26934C11.1725 6.95832 12.0463 6.79757 12.9276 6.79457ZM25.3947 14.7693C24.1649 14.7706 22.9785 15.2192 22.0616 16.0299C21.1447 16.8406 20.5613 17.9567 20.4226 19.1654C20.9766 19.3696 21.5627 19.4753 22.1539 19.4775C23.384 19.4765 24.5707 19.028 25.4879 18.2172C26.405 17.4065 26.9885 16.2902 27.1272 15.0812C26.5728 14.8768 25.9863 14.7713 25.3947 14.7693Z" fill="#24694D"/>
<path d="M12.3691 25.8898L13.881 39.4605H26.7266L28.2384 25.8898H12.3691Z" fill="#24694D"/>
<path fill-rule="evenodd" clip-rule="evenodd" d="M19.7175 12.4538V22.8122H20.9507V12.4538H19.7175Z" fill="#CDFF63"/>
<path fill-rule="evenodd" clip-rule="evenodd" d="M15.3533 9.82325C15.2158 9.8243 15.0826 9.87116 14.9748 9.95662C14.8671 10.0421 14.7911 10.1612 14.7587 10.2949C14.7264 10.4285 14.7397 10.5691 14.7964 10.6944C14.8532 10.8196 14.9503 10.9223 15.0721 10.9861L20.0047 13.6065C20.0765 13.6479 20.1558 13.6743 20.238 13.6843C20.3202 13.6944 20.4036 13.6878 20.4832 13.6649C20.5628 13.642 20.637 13.6033 20.7014 13.5511C20.7657 13.4989 20.8188 13.4343 20.8576 13.3611C20.8964 13.288 20.9201 13.2076 20.9271 13.1251C20.9342 13.0426 20.9246 12.9595 20.8988 12.8808C20.8731 12.8021 20.8318 12.7293 20.7773 12.6669C20.7228 12.6045 20.6564 12.5537 20.5818 12.5176L15.6493 9.89716C15.5584 9.8481 15.4566 9.82273 15.3533 9.82325Z" fill="#CDFF63"/>
<path fill-rule="evenodd" clip-rule="evenodd" d="M24.1079 6.35703C24.0076 6.35748 23.9088 6.38245 23.8203 6.42973C23.7317 6.47701 23.6561 6.54512 23.5999 6.62828L19.7587 12.1663C19.7074 12.2324 19.6701 12.3084 19.6491 12.3894C19.6281 12.4703 19.6239 12.5547 19.6365 12.6374C19.6492 12.7201 19.6785 12.7993 19.7228 12.8703C19.7671 12.9413 19.8253 13.0026 19.894 13.0503C19.9627 13.0981 20.0405 13.1314 20.1224 13.1482C20.2044 13.1649 20.2889 13.1648 20.3708 13.1479C20.4527 13.1309 20.5304 13.0975 20.599 13.0496C20.6676 13.0017 20.7257 12.9403 20.7699 12.8692L24.6135 7.33246C24.6793 7.24001 24.7184 7.13121 24.7263 7.018C24.7342 6.90479 24.7108 6.79148 24.6585 6.69075C24.6062 6.59002 24.5271 6.50572 24.43 6.44704C24.3328 6.38837 24.2214 6.35641 24.1079 6.35703ZM23.4506 16.5279C23.3532 16.5353 23.259 16.5657 23.1757 16.6167L20.4394 18.2358C20.3697 18.2771 20.3087 18.3317 20.2601 18.3965C20.2115 18.4614 20.1762 18.5351 20.1561 18.6136C20.136 18.6921 20.1315 18.7738 20.143 18.854C20.1545 18.9342 20.1816 19.0114 20.2229 19.0812C20.2642 19.1509 20.3188 19.2118 20.3837 19.2604C20.4485 19.309 20.5222 19.3444 20.6007 19.3645C20.6792 19.3845 20.7609 19.389 20.8411 19.3775C20.9213 19.3661 20.9985 19.3389 21.0682 19.2976L23.8046 17.6785C23.9265 17.6092 24.0211 17.5002 24.0728 17.3698C24.1245 17.2394 24.1302 17.0953 24.089 16.9612C24.0477 16.8272 23.9621 16.7113 23.846 16.6325C23.73 16.5537 23.5905 16.5167 23.4506 16.5279Z" fill="#CDFF63"/>
<path d="M11.3969 22.1966H29.1874C29.3835 22.1966 29.5401 22.3544 29.5401 22.5505V25.5371C29.5402 25.5836 29.5312 25.6295 29.5136 25.6725C29.4959 25.7154 29.47 25.7544 29.4372 25.7873C29.4044 25.8202 29.3655 25.8463 29.3226 25.8641C29.2798 25.8819 29.2338 25.8911 29.1874 25.891H11.3969C11.3504 25.8912 11.3043 25.8822 11.2613 25.8644C11.2182 25.8467 11.1792 25.8206 11.1463 25.7878C11.1134 25.7549 11.0873 25.7158 11.0696 25.6728C11.0519 25.6298 11.0428 25.5837 11.043 25.5371V22.5505C11.043 22.3532 11.2008 22.1966 11.3969 22.1966Z" fill="#287456"/>
</g>
<defs>
<clipPath id="clip0_2_2348">
<rect width="39.4605" height="39.4605" fill="white" transform="translate(0.481445)"/>
</clipPath>
</defs>
</svg>
